<svg xmlns="http://www.w3.org/2000/svg" width="95.528" height="99.905" viewBox="0 0 95.528 99.905">
  <g id="alfa-branco" transform="translate(-31.5 -19.2)">
    <g id="Grupo_1" data-name="Grupo 1" transform="translate(31.5 96.245)">
      <path id="Caminho_1" data-name="Caminho 1" d="M35.2,462.369l-1.139,2.544H31.5L37.157,452.3h2.828l5.657,12.613H43.081l-1.139-2.544Zm5.835-2.028-2.455-5.479-2.455,5.479Z" transform="translate(-31.5 -452.3)" fill="#292929"/>
      <rect id="Retângulo_1" data-name="Retângulo 1" width="2.117" height="12.613" transform="translate(15.512)" fill="#292929"/>
      <path id="Caminho_2" data-name="Caminho 2" d="M143.73,454.41c-.712,0-1.05.231-1.05.676v.249h2.544v2.028H142.68v7.614h-2.117v-7.614H139.3v-2.01h1.263V455.1a2.527,2.527,0,0,1,2.295-2.7h2.348v2.028H143.73Z" transform="translate(-120.123 -452.382)" fill="#292929"/>
      <path id="Caminho_3" data-name="Caminho 3" d="M189.568,478.535a1.112,1.112,0,0,1-.64.107h-5.532c-1.53-.3-2.295-1.352-2.295-3.131s.765-2.829,2.295-3.131h5.532c.338,0,.551.036.623.125v-.356c-.107-.747-.463-1.1-1.05-1.1h-4.216c-.712,0-1.05.427-1.05,1.263h-2.117c0-1.9.765-2.989,2.295-3.309h5.977c1.53.3,2.295,1.352,2.295,3.131v6.511h-2.117Zm-6.333-3.024c0,.729.356,1.1,1.05,1.1h4.234c.48,0,.8-.374.943-1.1-.16-.729-.463-1.1-.943-1.1h-4.234c-.712,0-1.05.374-1.05,1.1" transform="translate(-154.487 -466.029)" fill="#292929"/>
      <path id="Caminho_4" data-name="Caminho 4" d="M303.048,459.629h-9.731v5.283H291.2V452.3h2.117v5.283h9.731V452.3h2.117v12.613h-2.117Z" transform="translate(-245.001 -452.3)" fill="#292929"/>
      <path id="Caminho_5" data-name="Caminho 5" d="M380.695,478.642c-1.53-.3-2.295-1.779-2.295-4.394v-.854c0-2.633.765-4.092,2.295-4.394h5.977c1.53.3,2.295,1.779,2.295,4.394v.854c0,2.633-.765,4.092-2.295,4.394Zm.872-7.614c-.712,0-1.05.783-1.05,2.366v.854c0,1.583.356,2.366,1.05,2.366H385.8c.712,0,1.049-.783,1.049-2.366v-.854c0-1.583-.356-2.366-1.049-2.366Z" transform="translate(-316.689 -466.029)" fill="#292929"/>
      <path id="Caminho_6" data-name="Caminho 6" d="M452.506,462.967v2.028h-2.348a2.526,2.526,0,0,1-2.295-2.7v-4.91H446.6v-2.028h1.263V452.4h2.117v2.953h2.544v2.028H449.98v4.91c0,.445.356.676,1.05.676Z" transform="translate(-372.757 -452.382)" fill="#292929"/>
      <path id="Caminho_7" data-name="Caminho 7" d="M490.717,474.917c.053,1.192.409,1.779,1.05,1.779H496c.712,0,1.05-.427,1.05-1.263h2.117c0,1.9-.765,2.989-2.295,3.309h-5.977c-1.53-.3-2.295-1.779-2.295-4.394v-.854c0-2.633.765-4.092,2.295-4.394h5.959c1.53.3,2.295,1.352,2.295,3.131v2.7h-8.432Zm6.315-2.7c0-.729-.356-1.1-1.05-1.1h-4.234c-.64,0-.978.587-1.05,1.779h6.333Z" transform="translate(-407.285 -466.111)" fill="#292929"/>
      <rect id="Retângulo_2" data-name="Retângulo 2" width="2.117" height="12.613" transform="translate(93.411)" fill="#292929"/>
      <path id="Caminho_8" data-name="Caminho 8" d="M212.584,550.936a6.391,6.391,0,0,1,.64.071c.213.036.409.053.6.089v.587H212v4.465h-.765v-4.465H209.4V551.1c.2-.036.391-.071.6-.089.178-.018.391-.053.64-.071.231-.018.48-.036.747-.036h.445c.267,0,.516.018.747.036" transform="translate(-177.753 -533.36)" fill="#fff"/>
      <path id="Caminho_9" data-name="Caminho 9" d="M236.718,551.528l-.036.107-.018.142v.694h2.206v.694h-2.206v1.085l.018.142.036.107.053.071.053.071.213.125a1.481,1.481,0,0,0,.356.089,3.557,3.557,0,0,0,.658.036h1.761v.587a3.156,3.156,0,0,1-.5.089c-.16.018-.338.053-.551.071s-.463.036-.712.036a4.331,4.331,0,0,1-.872-.071,1.415,1.415,0,0,1-.391-.107,2.031,2.031,0,0,1-.338-.178,1.246,1.246,0,0,1-.374-.374,1.137,1.137,0,0,1-.142-.338,1.331,1.331,0,0,1-.036-.373v-2.491a1.323,1.323,0,0,1,.178-.712,1.247,1.247,0,0,1,.374-.373,1.227,1.227,0,0,1,.338-.178,1.415,1.415,0,0,1,.391-.107,4.326,4.326,0,0,1,.872-.071c.267,0,.5.018.712.036s.409.053.551.071c.178.036.356.053.5.089v.569h-1.761a6.347,6.347,0,0,0-.658.036,1.07,1.07,0,0,0-.569.231Z" transform="translate(-199.539 -532.867)" fill="#fff"/>
      <path id="Caminho_10" data-name="Caminho 10" d="M264.952,553.091a1.236,1.236,0,0,1-.3.445l-.053.036-.053.036.178.16.142.2a1.137,1.137,0,0,1,.142.338,1.332,1.332,0,0,1,.036.374V555.9h-.783v-1.227l-.053-.249-.107-.16-.214-.125a1.477,1.477,0,0,0-.356-.089,3.65,3.65,0,0,0-.658-.053h-1.388v1.9H260.7v-3.86a1.323,1.323,0,0,1,.178-.712,1.074,1.074,0,0,1,.374-.374,1.232,1.232,0,0,1,.338-.178c.125-.036.249-.071.391-.107l.427-.053a3.712,3.712,0,0,1,.445-.018,4.012,4.012,0,0,1,.462.018,3.5,3.5,0,0,1,.427.053c.142.036.267.071.391.107a3.311,3.311,0,0,1,.356.178l.2.16.16.214a1.323,1.323,0,0,1,.178.712v.516a1.3,1.3,0,0,1-.071.534m-.676-1.067a.472.472,0,0,0-.053-.249l-.107-.16a.952.952,0,0,0-.569-.213,1.564,1.564,0,0,0-.3-.036c-.107,0-.231-.018-.356-.018a2.265,2.265,0,0,0-.356.018,1.56,1.56,0,0,0-.3.036,1.081,1.081,0,0,0-.569.213l-.107.16a.472.472,0,0,0-.053.249v1.192h1.388a4.374,4.374,0,0,0,.729-.053l.267-.071.178-.089.125-.142.053-.124.018-.2v-.516Z" transform="translate(-219.927 -533.113)" fill="#fff"/>
      <path id="Caminho_11" data-name="Caminho 11" d="M288.418,551.528l-.036.107-.018.142v.694h2.206v.694h-2.188v1.085l.018.142.036.107.053.071.053.071.214.125a1.481,1.481,0,0,0,.356.089,3.558,3.558,0,0,0,.658.036h1.761v.587a3.157,3.157,0,0,1-.5.089c-.16.018-.338.053-.551.071s-.463.036-.712.036a4.331,4.331,0,0,1-.872-.071,1.416,1.416,0,0,1-.391-.107,2.034,2.034,0,0,1-.338-.178,1.247,1.247,0,0,1-.374-.374,1.137,1.137,0,0,1-.142-.338,1.354,1.354,0,0,1-.053-.373v-2.491a1.323,1.323,0,0,1,.178-.712,1.246,1.246,0,0,1,.374-.373,1.226,1.226,0,0,1,.338-.178,1.416,1.416,0,0,1,.391-.107,4.327,4.327,0,0,1,.872-.071c.267,0,.5.018.712.036s.409.053.552.071c.178.036.356.053.5.089v.569h-1.761a6.347,6.347,0,0,0-.658.036,1.07,1.07,0,0,0-.569.231Z" transform="translate(-242.042 -532.867)" fill="#fff"/>
      <path id="Caminho_12" data-name="Caminho 12" d="M314.627,553.413a2.861,2.861,0,0,1-.391-.107l-.249-.071-.16-.053-.142-.053a5.061,5.061,0,0,1-.623-.231,1.764,1.764,0,0,1-.445-.3,1.021,1.021,0,0,1-.267-.409,1.214,1.214,0,0,1-.071-.534,2.755,2.755,0,0,1,.071-.373,1.179,1.179,0,0,1,.16-.338,1.415,1.415,0,0,1,.374-.356,1.283,1.283,0,0,1,.356-.16,2.529,2.529,0,0,1,.391-.089,3.46,3.46,0,0,1,.427-.036h.463a5.3,5.3,0,0,1,.658.071c.178.036.32.053.445.089a2.237,2.237,0,0,1,.32.107l-.036.587-1.441-.071a6.349,6.349,0,0,0-.658.036,1.245,1.245,0,0,0-.427.107.508.508,0,0,0-.231.2l-.071.267.036.2.142.16a1.769,1.769,0,0,0,.267.16,3.672,3.672,0,0,0,.427.16c.142.036.285.089.427.125a3.057,3.057,0,0,1,.374.125c.125.036.249.071.338.107a4.206,4.206,0,0,1,.569.249,1.422,1.422,0,0,1,.427.356,1.5,1.5,0,0,1,.267.462,1.754,1.754,0,0,1-.16,1.3,1.414,1.414,0,0,1-.374.356,1.281,1.281,0,0,1-.356.16,2.5,2.5,0,0,1-.391.089,3.448,3.448,0,0,1-.427.036,3.723,3.723,0,0,1-.445-.018c-.267-.018-.5-.036-.712-.053-.213-.036-.391-.071-.551-.107a4.08,4.08,0,0,1-.5-.125l.036-.569.676.053c.178.018.374.018.569.036s.374.018.516.018a5.566,5.566,0,0,0,.569-.018,2.024,2.024,0,0,0,.409-.089.692.692,0,0,0,.249-.178.735.735,0,0,0-.107-.907,1.741,1.741,0,0,0-.729-.356" transform="translate(-262.326 -532.867)" fill="#fff"/>
      <rect id="Retângulo_3" data-name="Retângulo 3" width="0.765" height="5.248" transform="translate(54.631 17.54)" fill="#fff"/>
      <path id="Caminho_13" data-name="Caminho 13" d="M346.983,555.9H346.2v-3.86a2.656,2.656,0,0,1,.036-.374,1.136,1.136,0,0,1,.142-.338.944.944,0,0,1,.374-.374,3.108,3.108,0,0,1,.338-.178,1.416,1.416,0,0,1,.391-.107,1.754,1.754,0,0,1,.427-.053,3.712,3.712,0,0,1,.445-.018,4.012,4.012,0,0,1,.462.018l.427.053a1.415,1.415,0,0,1,.391.107,3.331,3.331,0,0,1,.356.178l.2.16.16.214a1.135,1.135,0,0,1,.142.338,1.331,1.331,0,0,1,.036.374v3.86h-.783v-3.86l-.053-.249-.107-.16-.213-.125a1.475,1.475,0,0,0-.356-.089,3.759,3.759,0,0,0-.658-.036H348c-.107.018-.214.018-.3.036a1.473,1.473,0,0,0-.356.089l-.214.125-.071.071-.053.089-.036.107-.018.142v3.86Z" transform="translate(-290.217 -533.113)" fill="#fff"/>
      <path id="Caminho_14" data-name="Caminho 14" d="M377.845,551.229a1.365,1.365,0,0,1,.178.712v3.86h-.783v-2.259h-2.757V555.8H373.7v-3.86a1.364,1.364,0,0,1,.178-.712,1.244,1.244,0,0,1,.374-.374,2.029,2.029,0,0,1,.338-.178,1.411,1.411,0,0,1,.391-.107,4.437,4.437,0,0,1,.872-.071,4.321,4.321,0,0,1,.872.071,1.411,1.411,0,0,1,.391.107,2.029,2.029,0,0,1,.338.178,1.132,1.132,0,0,1,.391.374m-.6,1.619v-.907a.472.472,0,0,0-.053-.249l-.107-.16a1.071,1.071,0,0,0-.569-.231,3.657,3.657,0,0,0-.658-.036,6.347,6.347,0,0,0-.658.036,1.072,1.072,0,0,0-.569.231l-.107.16a.472.472,0,0,0-.053.249v.907Z" transform="translate(-312.825 -533.031)" fill="#fff"/>
    </g>
    <g id="Grupo_15" data-name="Grupo 15" transform="translate(34.56 19.2)">
      <path id="Caminho_15" data-name="Caminho 15" d="M107.689,51.843,94.863,39.017a18.21,18.21,0,0,0-25.652,0L68,40.227a16.449,16.449,0,0,0,0,23.2l.036.036a19.928,19.928,0,0,0,28.036-.036l11.616-11.581M127.9,72.052l-9.926-9.926-11.6,11.6a34.444,34.444,0,0,1-48.636,0L55.6,71.589v-.231a31.069,31.069,0,0,1,2.135-41.431l1.21-1.21a32.791,32.791,0,0,1,46.217.018l12.826,12.826,9.926-9.926L138.2,41.917l-9.926,9.926L138.2,61.77,127.9,72.052" transform="translate(-48.7 -19.2)" fill="#fff"/>
    </g>
  </g>
</svg> 